<?xml version="1.0" encoding="utf-8"?><svg width="88" height="31" fill="none" xmlns="http://www.w3.org/2000/svg"><g clip-path="url(#a)"><path d="M5.584 22.207c.717 2.612 2.661 3.918 5.834 3.918 2.04 0 3.584-.693 4.632-2.084l4.303 2.5c-2.042 2.973-5.046 4.46-9.017 4.46-3.42 0-6.164-1.044-8.232-3.125C1.035 25.795 0 23.168 0 20c0-3.168 1.02-5.756 3.062-7.855 2.04-2.096 4.661-3.146 7.86-3.146 3.033 0 5.535 1.056 7.508 3.166 1.972 2.11 2.958 4.722 2.958 7.833 0 .695-.068 1.43-.208 2.208H5.584v.002Zm-.082-4.166H16.05c-.303-1.418-.931-2.472-1.883-3.167-.95-.693-2.033-1.04-3.247-1.04-1.434 0-2.62.367-3.558 1.105-.938.735-1.557 1.771-1.86 3.104v-.002ZM62.311 9.584h5.336v20.832h-5.336V27.96C60.711 29.986 58.464 31 55.568 31c-2.896 0-5.124-1.063-7.095-3.186-1.97-2.126-2.958-4.729-2.958-7.813 0-3.084.987-5.686 2.958-7.812 1.971-2.126 4.336-3.187 7.095-3.187 2.896 0 5.144 1.014 6.743 3.042v-2.46Zm-9.845 14.647c1.075 1.098 2.44 1.646 4.095 1.646 1.655 0 3.027-.548 4.117-1.646 1.091-1.099 1.635-2.507 1.635-4.23 0-1.722-.544-3.13-1.635-4.229-1.09-1.096-2.462-1.647-4.117-1.647-1.654 0-3.02.548-4.095 1.647-1.075 1.098-1.612 2.507-1.612 4.23 0 1.722.537 3.132 1.612 4.229ZM72.487 30.416V9.584h5.337v20.832h-5.337ZM82.664 30.416V0H88v30.416h-5.336ZM75.136 7.084c-.883 0-1.648-.326-2.297-.979-.648-.652-.97-1.423-.97-2.312 0-.89.322-1.667.97-2.334.649-.666 1.414-1 2.297-1 .882 0 1.688.334 2.336 1 .648.667.971 1.444.971 2.334 0 .889-.325 1.66-.971 2.312-.648.653-1.427.979-2.336.979Z" fill="#fff"/><path d="M28.587 9.57H21.72L30.107 20l-8.376 10.417h6.867l8.376-10.417L28.587 9.57Z" fill="#00FFDA"/><path d="m33.54 24.27 4.94 6.146h6.867L36.974 20l-3.434 4.272ZM38.491 9.57l-4.95 6.16 3.433 4.269L45.358 9.57h-6.867Z" fill="#fff"/></g><defs><clipPath id="a"><path fill="#fff" d="M0 0h88v31H0z"/></clipPath></defs></svg>